<?xml version="1.0" encoding="UTF-8" standalone="no"?>
<!-- Created with Inkscape (http://www.inkscape.org/) -->

<svg
   width="196mm"
   height="30.3mm"
   viewBox="0 0 196 30.3"
   version="1.1"
   id="svg1"
   xmlns:inkscape="http://www.inkscape.org/namespaces/inkscape"
   xmlns:sodipodi="http://sodipodi.sourceforge.net/DTD/sodipodi-0.dtd"
   xmlns="http://www.w3.org/2000/svg"
   xmlns:svg="http://www.w3.org/2000/svg">
  
  <defs
     id="defs1" />
 
  <g
     inkscape:label="Layer 1"
     inkscape:groupmode="layer"
     id="layer1"
     transform="translate(-7.3553564,-6.2852481)">
    <g
       id="g1040"
       transform="matrix(0.83862534,0,0,0.79296204,101.67534,-32.278772)"
       style="fill:#e20408;fill-opacity:1;stroke:#000000;stroke-width:0.264583;stroke-opacity:1" >
      <path
         d="m -104.18335,62.967649 h -8.15411 v 22.983836 h 8.15411 V 74.974799 c 0,-2.553759 0,-6.451603 3.62903,-6.451603 3.629023,0 3.629023,3.897844 3.629023,6.451603 v 10.976686 h 8.154109 V 74.974799 c 0,-2.73297 0.134408,-6.272391 3.897844,-6.272391 3.449815,0 3.36021,3.897843 3.36021,6.272391 v 10.976686 h 8.154109 V 71.30097 c 0,-5.28673 -2.016126,-9.094968 -7.84049,-9.094968 -3.136196,0 -6.227589,1.523295 -7.795687,4.390674 -1.657704,-3.04659 -4.525083,-4.390674 -7.84049,-4.390674 -2.956985,0 -5.331538,1.075267 -7.258058,3.629026 h -0.0896 z"
         id="path01m" />
      <path
         d="m -62.899499,69.284844 c 3.315407,0 5.241928,2.374548 5.241928,5.197125 0,2.912182 -1.926521,5.152322 -5.241928,5.152322 -3.315407,0 -5.241927,-2.24014 -5.241927,-5.152322 0,-2.822577 1.92652,-5.197125 5.241927,-5.197125 z m 13.12722,-6.317195 h -8.154109 v 2.24014 c -1.702507,-2.016126 -4.48028,-3.001787 -7.123645,-3.001787 -6.810026,0 -11.51432,5.645152 -11.51432,12.231164 0,6.586011 4.7939,12.275971 11.603925,12.275971 2.688168,0 5.510745,-1.030469 6.944434,-3.315411 h 0.08961 v 2.553759 h 8.154109 z"
         id="path02a" />
      <path
         d="m -40.430402,62.967649 h -8.15411 v 22.983836 h 8.15411 v -9.274179 c 0,-3.942647 1.12007,-6.944434 5.645152,-6.944434 1.254479,0 2.329748,0.134408 3.449812,0.761648 v -7.84049 h -1.568094 c -3.180999,0 -5.869167,1.254478 -7.437265,4.077054 h -0.0896 z"
         id="path03r" />
      <path
         d="m -22.251512,48.765162 h -8.154052 v 37.186323 h 8.154052 V 76.5877 l 8.915757,9.363785 H -1.9110451 L -14.142205,73.585913 -2.6278851,62.967649 H -13.783785 l -8.467727,8.288518 z"
         id="path04k" />
      <path
         d="m 4.5719149,69.688069 h 4.61469 v -6.72042 h -4.61469 v -6.899631 h -8.15411 v 6.899631 h -2.64336 v 6.72042 h 2.64336 v 16.263416 h 8.15411 z"
         id="path05t"  />
      <path
         d="m 18.49867,49.058421 h -8.15411 v 37.186337 h 8.15411 v -9.36378 l 8.91575,9.36378 H 38.83914 L 26.60797,73.879188 38.12229,63.260918 h -11.1559 l -8.46772,8.28852 z"
         id="path06k"  />
      <path
         d="m 46.677145,63.260918 h -8.15411 v 22.98384 h 8.15411 v -9.27418 c 0,-3.94265 1.12007,-6.94443 5.64515,-6.94443 1.25448,0 2.32974,0.13441 3.44981,0.76165 v -7.8405 h -1.56809 c -3.181,0 -5.86917,1.25448 -7.43727,4.07706 h -0.0896 z"
         id="path07r"  />
      <path
         d="m 64.856097,63.260918 h -8.15411 v 22.98384 h 8.15411 z m -4.07706,-13.396047 c -2.50895,0 -4.56988,2.06093 -4.56988,4.569883 0,2.50896 2.06093,4.56989 4.56988,4.56989 2.50896,0 4.56989,-2.06093 4.56989,-4.56989 0,-2.508953 -2.06093,-4.569883 -4.56989,-4.569883 z"
         id="path08i"  />
      <path
         d="m 76.502352,69.981338 h 4.61469 v -6.72042 h -4.61469 v -6.899644 h -8.15411 v 6.899644 h -2.64337 v 6.72042 h 2.64337 v 16.26342 h 8.15411 z"
         id="path09t"  />
      <path
         d="m 90.811357,63.260918 h -8.154068 v 22.98384 h 8.154068 z m -4.07703,-13.396047 c -2.508947,0 -4.569865,2.06093 -4.569865,4.569883 0,2.50896 2.060918,4.56989 4.569865,4.56989 2.50895,0 4.56986,-2.06093 4.56986,-4.56989 0,-2.508953 -2.06091,-4.569883 -4.56986,-4.569883 z"
         id="path10i"  />
      <path
         d="m 100.6376,49.058421 h -8.154093 v 37.186337 h 8.154093 v -9.36378 l 8.91576,9.36378 h 11.42472 l -12.23117,-12.36557 11.51432,-10.61827 h -11.1559 l -8.46773,8.28852 z"
         id="path11k"   />
    </g>
  </g>

</svg>
